# xmcd
#
# Track frame offsets: 
#        150
#        16128
#        34302
#        42397
#        54654
#        68763
#        82095
#        92272
#        107418
#        120732
#        133773
#        144483
#
# Disc length: 2201 seconds
#
# Revision: 0
# Processed by: cddbd v1.5.2PL0 Copyright (c) Steve Scherf et al.
# Submitted via: ExactAudioCopy v0.99pb3
#
DISCID=9e08970c
DTITLE=Congregation - Congregation
DYEAR=2008
DGENRE=Blues
TTITLE0=Dose of Hell
TTITLE1=I was a Fool
TTITLE2=Don't Pay no Mind
TTITLE3=Head above Water
TTITLE4=Never Forgive
TTITLE5=Oh True Love!
TTITLE6=Hard to Bear
TTITLE7=Putting you Out
TTITLE8=Eye to Eye
TTITLE9=The Man I love
TTITLE10=Feel like Crying
TTITLE11=There was a Time
EXTD=
EXTT0=
EXTT1=
EXTT2=
EXTT3=
EXTT4=
EXTT5=
EXTT6=
EXTT7=
EXTT8=
EXTT9=
EXTT10=
EXTT11=
PLAYORDER=
